<svg width="62" height="62" viewBox="0 0 62 62" fill="none" xmlns="http://www.w3.org/2000/svg">
<path fill-rule="evenodd" clip-rule="evenodd" d="M38.8694 36.08C39.0561 37.6131 38.6475 39.0087 37.6894 40.1176C36.4348 41.5675 34.2601 42.4945 31.8067 42.6617V45.0128C31.8067 45.4637 31.4408 45.8296 30.9895 45.8296C30.5386 45.8296 30.1727 45.4637 30.1727 45.0128V42.6524C27.1093 42.3741 23.9646 40.6601 23.0892 37.1494C22.9802 36.711 23.2457 36.269 23.6841 36.1592C24.1238 36.0499 24.5644 36.3166 24.6747 36.7541C25.439 39.821 28.5121 41.1336 31.2602 41.062C32.964 41.0216 35.224 40.4716 36.4538 39.0501C37.1123 38.2885 37.3786 37.3566 37.2479 36.2767C36.9473 33.798 34.9817 32.3921 30.8779 31.7185C26.3397 30.9728 23.9593 28.9881 23.8054 25.8198C23.6578 22.796 25.7972 20.2572 29.1291 19.5014C29.4666 19.4249 29.8169 19.3737 30.1735 19.3386V16.9715C30.1735 16.5206 30.5394 16.1556 30.9903 16.1556C31.4416 16.1556 31.8075 16.5206 31.8075 16.9715V19.331C34.3792 19.56 37.0015 20.9343 38.2659 23.9447C38.4407 24.3609 38.2459 24.8393 37.8302 25.0136C37.4127 25.1888 36.9356 24.9931 36.7605 24.5774C35.4088 21.358 32.0449 20.5154 29.4915 21.0935C27.5388 21.5363 25.3046 23.0196 25.4366 25.7406C25.55 28.0659 27.4174 29.494 31.1428 30.1062C32.9106 30.3956 38.2865 31.2792 38.8694 36.08ZM30.9904 48.7586C40.7879 48.7586 48.7578 40.7885 48.7578 30.9922C48.7578 21.1938 40.7877 13.2236 30.9904 13.2236C21.1938 13.2236 13.2229 21.1937 13.2229 30.9911C13.2229 40.7885 21.1939 48.7586 30.9904 48.7586ZM30.9904 11.5903C20.2925 11.5903 11.5895 20.2936 11.5895 30.9911C11.5895 41.6889 20.292 50.3919 30.9904 50.3919C41.6887 50.3919 50.3912 41.6886 50.3912 30.9911C50.3912 20.2936 41.6883 11.5903 30.9904 11.5903ZM59.5674 33.3677V28.6143L55.168 26.9198C54.9057 26.8198 54.7145 26.5904 54.6603 26.3156C54.0436 23.1739 52.8218 20.2297 51.0318 17.5625C50.8753 17.3295 50.849 17.0325 50.9633 16.7755L52.8787 12.4632L49.5179 9.10241L45.2034 11.0178C44.9473 11.1312 44.6498 11.1063 44.4173 10.9493C41.7509 9.15846 38.8063 7.93841 35.6655 7.32128C35.3907 7.26703 35.1617 7.0754 35.0613 6.81353L33.3677 2.41412H28.6143L26.9194 6.81535C26.8194 7.07768 26.5899 7.26886 26.3152 7.3231C23.1748 7.93934 20.2306 9.15983 17.5633 10.9511C17.3308 11.1076 17.0334 11.133 16.7773 11.0196L12.4628 9.10423L9.10197 12.465L11.0187 16.7786C11.1321 17.0347 11.1063 17.3317 10.9503 17.5647C9.15893 20.2311 7.93843 23.1753 7.32175 26.3165C7.2675 26.5913 7.07677 26.8203 6.81445 26.9207L2.41412 28.6143V33.3677L6.81354 35.0621C7.07586 35.1622 7.26705 35.3903 7.32128 35.6664C7.93796 38.8076 9.15972 41.7523 10.9498 44.4194C11.1063 44.652 11.1325 44.9494 11.0183 45.2051L9.10287 49.5183L12.4637 52.8791L16.7782 50.9628C17.0343 50.8495 17.3317 50.8752 17.5642 51.0313C20.2306 52.8226 23.1753 54.0431 26.3161 54.6584C26.5908 54.7127 26.8198 54.9043 26.9203 55.1662L28.6152 59.5674H33.3686L35.0635 55.1688C35.1636 54.9065 35.3916 54.7153 35.6678 54.6611C38.809 54.0444 41.7537 52.8226 44.42 51.0326C44.6526 50.8761 44.95 50.8511 45.2061 50.9641L49.5193 52.8795L52.8801 49.5187L50.9639 45.2042C50.8505 44.9481 50.8763 44.6506 51.0323 44.4181C52.8236 41.7517 54.0441 38.8071 54.6595 35.6663C54.7137 35.3915 54.9053 35.1625 55.1681 35.062L59.5674 33.3677ZM60.6776 27.2911L56.1715 25.5562C55.5188 22.5146 54.3316 19.6504 52.6372 17.0313L54.5983 12.6144C54.7366 12.3059 54.6681 11.9444 54.4298 11.7057L50.2763 7.55118C50.0366 7.31286 49.6756 7.24529 49.3675 7.38178L44.9494 9.34428C42.3292 7.64983 39.4664 6.46279 36.4257 5.81048L34.6908 1.30293C34.569 0.988594 34.2653 0.780518 33.9283 0.780518H28.0541C27.7162 0.780518 27.4134 0.98815 27.2911 1.30383L25.5563 5.81138C22.5155 6.46319 19.6523 7.65073 17.0325 9.34518L12.6145 7.38268C12.305 7.2453 11.944 7.31287 11.7057 7.55208L7.5512 11.7066C7.31288 11.9458 7.24442 12.3068 7.38269 12.6153L9.34519 17.0326C7.65028 19.6519 6.46233 22.5156 5.81093 25.5564L1.30339 27.2912C0.988605 27.4126 0.780518 27.7154 0.780518 28.0533V33.9279C0.780518 34.2658 0.98815 34.5686 1.30293 34.6896L5.80911 36.4244C6.46181 39.4651 7.64892 42.3289 9.34337 44.9491L7.38223 49.3663C7.24396 49.6744 7.31243 50.0364 7.55075 50.2747L11.7052 54.4292C11.9435 54.6675 12.3046 54.7346 12.614 54.5977L17.0321 52.6352C19.6523 54.3301 22.5151 55.5167 25.5558 56.1694L27.2907 60.677C27.4121 60.9922 27.7157 61.1994 28.0536 61.1994H33.9278C34.2657 61.1994 34.5685 60.9917 34.6899 60.677L36.4248 56.1708C39.4655 55.5181 42.3301 54.331 44.9494 52.6365L49.3667 54.5977C49.6748 54.7346 50.0358 54.6675 50.2755 54.4292L54.429 50.2747C54.6673 50.0364 54.7358 49.674 54.5975 49.3663L52.636 44.9491C54.3309 42.3289 55.5174 39.4661 56.1702 36.4253L60.6778 34.6905C60.993 34.5695 61.2002 34.2663 61.2002 33.9288V28.0542C61.2011 27.7154 60.993 27.4126 60.6778 27.2912L60.6776 27.2911Z" fill="#5FC6C1"/>
</svg>
