<svg width="64" height="64" viewBox="0 0 64 64" fill="none" xmlns="http://www.w3.org/2000/svg">
<path d="M8.56943 63.0196H43.2587C43.268 63.0196 43.2772 63.0196 43.287 63.0191L43.8908 62.9966C48.1649 62.9685 51.6422 59.4335 51.6422 55.1174L51.6417 18.8343H62.5134C62.9454 18.8343 63.2956 18.4816 63.2956 18.0466V6.82736C63.2956 3.0715 60.27 0.0159912 56.55 0.0159912H56.4475H56.4469H56.4458L13.1942 0.0385148C8.91962 0.0665315 5.44287 3.60157 5.44287 7.9177V47.4339L1.52168 47.4344C1.08968 47.4344 0.739502 47.7871 0.739502 48.2222V55.1126C0.739502 59.4722 4.25213 63.0193 8.56989 63.0193L8.56943 63.0196ZM61.7308 6.82731V17.2594H51.6406V6.43073C51.6406 3.76252 53.7957 1.59158 56.4449 1.59102H56.5496C59.4066 1.59102 61.7308 3.94056 61.7308 6.82731ZM7.00553 7.91776C7.00553 4.46398 9.78564 1.63601 13.1986 1.61351L52.2765 1.59318C50.932 2.77043 50.0773 4.50033 50.0773 6.43064V55.1174C50.0773 58.5712 47.2972 61.3992 43.857 61.4222L43.251 61.4442C39.7994 61.4404 36.9926 58.6013 36.9926 55.1125V48.2221C36.9926 47.787 36.6425 47.4344 36.2105 47.4344L7.00603 47.4349L7.00553 7.91776ZM2.3021 49.009H35.4274V55.1117C35.4274 57.6991 36.6645 60.0004 38.573 61.444H8.56845C5.11307 61.444 2.30182 58.6033 2.30182 55.1117L2.3021 49.009Z" fill="#5FC6C1"/>
<path d="M14.4592 40.437H12.2136C11.7816 40.437 11.4314 40.7896 11.4314 41.2247C11.4314 41.6598 11.7816 42.0125 12.2136 42.0125H14.4592C14.8912 42.0125 15.2413 41.6598 15.2413 41.2247C15.2413 40.7896 14.8912 40.437 14.4592 40.437Z" fill="#269E96"/>
<path d="M20.589 40.437H18.3435C17.9115 40.437 17.5613 40.7896 17.5613 41.2247C17.5613 41.6598 17.9115 42.0125 18.3435 42.0125H20.589C21.021 42.0125 21.3712 41.6598 21.3712 41.2247C21.3712 40.7896 21.021 40.437 20.589 40.437Z" fill="#269E96"/>
<path d="M26.7204 40.437H24.4748C24.0428 40.437 23.6926 40.7896 23.6926 41.2247C23.6926 41.6598 24.0428 42.0125 24.4748 42.0125H26.7204C27.1524 42.0125 27.5026 41.6598 27.5026 41.2247C27.502 40.7896 27.1518 40.437 26.7204 40.437Z" fill="#269E96"/>
<path d="M32.8503 40.437H30.6047C30.1727 40.437 29.8225 40.7896 29.8225 41.2247C29.8225 41.6598 30.1727 42.0125 30.6047 42.0125H32.8503C33.2823 42.0125 33.6324 41.6598 33.6324 41.2247C33.6324 40.7896 33.2823 40.437 32.8503 40.437Z" fill="#269E96"/>
<path d="M38.9816 42.012C39.4136 42.012 39.7638 41.6593 39.7638 41.2242C39.7638 40.7891 39.4136 40.4365 38.9816 40.4365H36.736C36.304 40.4365 35.9539 40.7891 35.9539 41.2242C35.9539 41.6593 36.304 42.012 36.736 42.012H38.9816Z" fill="#269E96"/>
<path d="M42.8664 42.012H45.112C45.544 42.012 45.8942 41.6593 45.8942 41.2242C45.8942 40.7891 45.544 40.4365 45.112 40.4365H42.8664C42.4344 40.4365 42.0842 40.7891 42.0842 41.2242C42.0842 41.6593 42.4344 42.012 42.8664 42.012Z" fill="#269E96"/>
<path d="M14.4592 33.4391H12.2136C11.7816 33.4391 11.4314 33.7918 11.4314 34.2268C11.4314 34.6619 11.7816 35.0146 12.2136 35.0146H14.4592C14.8912 35.0146 15.2413 34.6619 15.2413 34.2268C15.2413 33.7918 14.8912 33.4391 14.4592 33.4391Z" fill="#269E96"/>
<path d="M20.589 33.4391H18.3435C17.9115 33.4391 17.5613 33.7918 17.5613 34.2268C17.5613 34.6619 17.9115 35.0146 18.3435 35.0146H20.589C21.021 35.0146 21.3712 34.6619 21.3712 34.2268C21.3712 33.7918 21.021 33.4391 20.589 33.4391Z" fill="#269E96"/>
<path d="M26.7204 33.4391H24.4748C24.0428 33.4391 23.6926 33.7918 23.6926 34.2268C23.6926 34.6619 24.0428 35.0146 24.4748 35.0146H26.7204C27.1524 35.0146 27.5026 34.6619 27.5026 34.2268C27.502 33.7918 27.1518 33.4391 26.7204 33.4391Z" fill="#269E96"/>
<path d="M32.8503 33.4391H30.6047C30.1727 33.4391 29.8225 33.7918 29.8225 34.2268C29.8225 34.6619 30.1727 35.0146 30.6047 35.0146H32.8503C33.2823 35.0146 33.6324 34.6619 33.6324 34.2268C33.6324 33.7918 33.2823 33.4391 32.8503 33.4391Z" fill="#269E96"/>
<path d="M36.7363 35.0142H38.9819C39.4139 35.0142 39.764 34.6615 39.764 34.2264C39.764 33.7913 39.4139 33.4387 38.9819 33.4387H36.7363C36.3043 33.4387 35.9541 33.7913 35.9541 34.2264C35.9541 34.6615 36.3043 35.0142 36.7363 35.0142Z" fill="#269E96"/>
<path d="M42.8664 35.0142H45.112C45.544 35.0142 45.8942 34.6615 45.8942 34.2264C45.8942 33.7913 45.544 33.4387 45.112 33.4387H42.8664C42.4344 33.4387 42.0842 33.7913 42.0842 34.2264C42.0842 34.6615 42.4344 35.0142 42.8664 35.0142Z" fill="#269E96"/>
<path d="M14.4592 26.4412H12.2136C11.7816 26.4412 11.4314 26.7939 11.4314 27.229C11.4314 27.6641 11.7816 28.0168 12.2136 28.0168H14.4592C14.8912 28.0168 15.2413 27.6641 15.2413 27.229C15.2413 26.7939 14.8912 26.4412 14.4592 26.4412Z" fill="#269E96"/>
<path d="M20.589 26.4412H18.3435C17.9115 26.4412 17.5613 26.7939 17.5613 27.229C17.5613 27.6641 17.9115 28.0168 18.3435 28.0168H20.589C21.021 28.0168 21.3712 27.6641 21.3712 27.229C21.3712 26.7939 21.021 26.4412 20.589 26.4412Z" fill="#269E96"/>
<path d="M26.7204 26.4412H24.4748C24.0428 26.4412 23.6926 26.7939 23.6926 27.229C23.6926 27.6641 24.0428 28.0168 24.4748 28.0168H26.7204C27.1524 28.0168 27.5026 27.6641 27.5026 27.229C27.502 26.7939 27.1518 26.4412 26.7204 26.4412Z" fill="#269E96"/>
<path d="M32.8503 26.4412H30.6047C30.1727 26.4412 29.8225 26.7939 29.8225 27.229C29.8225 27.6641 30.1727 28.0168 30.6047 28.0168H32.8503C33.2823 28.0168 33.6324 27.6641 33.6324 27.229C33.6324 26.7939 33.2823 26.4412 32.8503 26.4412Z" fill="#269E96"/>
<path d="M36.7363 28.0163H38.9819C39.4139 28.0163 39.764 27.6636 39.764 27.2286C39.764 26.7935 39.4139 26.4408 38.9819 26.4408H36.7363C36.3043 26.4408 35.9541 26.7935 35.9541 27.2286C35.9541 27.6642 36.3043 28.0163 36.7363 28.0163Z" fill="#269E96"/>
<path d="M42.8664 28.0163H45.112C45.544 28.0163 45.8942 27.6636 45.8942 27.2286C45.8942 26.7935 45.544 26.4408 45.112 26.4408H42.8664C42.4344 26.4408 42.0842 26.7935 42.0842 27.2286C42.0842 27.6642 42.4344 28.0163 42.8664 28.0163Z" fill="#269E96"/>
<path d="M14.4592 19.4434H12.2136C11.7816 19.4434 11.4314 19.796 11.4314 20.2311C11.4314 20.6662 11.7816 21.0189 12.2136 21.0189H14.4592C14.8912 21.0189 15.2413 20.6662 15.2413 20.2311C15.2413 19.796 14.8912 19.4434 14.4592 19.4434Z" fill="#269E96"/>
<path d="M20.589 19.4434H18.3435C17.9115 19.4434 17.5613 19.796 17.5613 20.2311C17.5613 20.6662 17.9115 21.0189 18.3435 21.0189H20.589C21.021 21.0189 21.3712 20.6662 21.3712 20.2311C21.3712 19.796 21.021 19.4434 20.589 19.4434Z" fill="#269E96"/>
<path d="M26.7204 19.4434H24.4748C24.0428 19.4434 23.6926 19.796 23.6926 20.2311C23.6926 20.6662 24.0428 21.0189 24.4748 21.0189H26.7204C27.1524 21.0189 27.5026 20.6662 27.5026 20.2311C27.502 19.796 27.1518 19.4434 26.7204 19.4434Z" fill="#269E96"/>
<path d="M32.8503 19.4434H30.6047C30.1727 19.4434 29.8225 19.796 29.8225 20.2311C29.8225 20.6662 30.1727 21.0189 30.6047 21.0189H32.8503C33.2823 21.0189 33.6324 20.6662 33.6324 20.2311C33.6324 19.796 33.2823 19.4434 32.8503 19.4434Z" fill="#269E96"/>
<path d="M36.7363 21.0199H38.9819C39.4139 21.0199 39.764 20.6672 39.764 20.2321C39.764 19.797 39.4139 19.4443 38.9819 19.4443H36.7363C36.3043 19.4443 35.9541 19.797 35.9541 20.2321C35.9541 20.6672 36.3043 21.0199 36.7363 21.0199Z" fill="#269E96"/>
<path d="M42.8664 21.0199H45.112C45.544 21.0199 45.8942 20.6672 45.8942 20.2321C45.8942 19.797 45.544 19.4443 45.112 19.4443H42.8664C42.4344 19.4443 42.0842 19.797 42.0842 20.2321C42.0842 20.6672 42.4344 21.0199 42.8664 21.0199Z" fill="#269E96"/>
<path d="M14.4592 12.447H12.2136C11.7816 12.447 11.4314 12.7997 11.4314 13.2348C11.4314 13.6699 11.7816 14.0225 12.2136 14.0225H14.4592C14.8912 14.0225 15.2413 13.6699 15.2413 13.2348C15.2413 12.7997 14.8912 12.447 14.4592 12.447Z" fill="#269E96"/>
<path d="M20.589 12.447H18.3435C17.9115 12.447 17.5613 12.7997 17.5613 13.2348C17.5613 13.6699 17.9115 14.0225 18.3435 14.0225H20.589C21.021 14.0225 21.3712 13.6699 21.3712 13.2348C21.3712 12.7997 21.021 12.447 20.589 12.447Z" fill="#269E96"/>
<path d="M26.7204 12.447H24.4748C24.0428 12.447 23.6926 12.7997 23.6926 13.2348C23.6926 13.6699 24.0428 14.0225 24.4748 14.0225H26.7204C27.1524 14.0225 27.5026 13.6699 27.5026 13.2348C27.502 12.7997 27.1518 12.447 26.7204 12.447Z" fill="#269E96"/>
<path d="M32.8503 12.447H30.6047C30.1727 12.447 29.8225 12.7997 29.8225 13.2348C29.8225 13.6699 30.1727 14.0225 30.6047 14.0225H32.8503C33.2823 14.0225 33.6324 13.6699 33.6324 13.2348C33.6324 12.7997 33.2823 12.447 32.8503 12.447Z" fill="#269E96"/>
<path d="M36.7363 14.0221H38.9819C39.4139 14.0221 39.764 13.6694 39.764 13.2343C39.764 12.7992 39.4139 12.4465 38.9819 12.4465H36.7363C36.3043 12.4465 35.9541 12.7992 35.9541 13.2343C35.9541 13.6694 36.3043 14.0221 36.7363 14.0221Z" fill="#269E96"/>
<path d="M42.8664 14.0221H45.112C45.544 14.0221 45.8942 13.6694 45.8942 13.2343C45.8942 12.7992 45.544 12.4465 45.112 12.4465H42.8664C42.4344 12.4465 42.0842 12.7992 42.0842 13.2343C42.0842 13.6694 42.4344 14.0221 42.8664 14.0221Z" fill="#269E96"/>
</svg>
