<svg width="52" height="50" viewBox="0 0 52 50" fill="none" xmlns="http://www.w3.org/2000/svg">
<path d="M49.8232 9.48015H45.4626V1.53715C45.4626 0.865784 44.9161 0.321411 44.2422 0.321411C43.5683 0.321411 43.0219 0.865784 43.0219 1.53715V9.48015H38.5637C37.8931 9.48883 37.3521 10.0278 37.3434 10.6959V39.8736C37.3434 40.545 37.8893 41.0893 38.5637 41.0893H42.9733V48.4484H42.9728C42.9728 49.1197 43.5192 49.6641 44.1931 49.6641C44.8676 49.6641 45.4135 49.1197 45.4135 48.4484V41.1214H49.8231C50.497 41.1214 51.0434 40.5776 51.0434 39.9057V10.728C51.0478 10.4012 50.9219 10.0865 50.6931 9.85254C50.4643 9.61808 50.151 9.48457 49.8231 9.48022L49.8232 9.48015ZM48.6028 38.6579H39.7842V11.9116H48.6034L48.6028 38.6579Z" fill="#5FC6C1"/>
<path d="M31.5668 13.0955H27.1572V1.53776C27.1572 0.866394 26.6107 0.322021 25.9368 0.322021C25.2629 0.322021 24.7165 0.866394 24.7165 1.53776V13.0955H20.3069C19.633 13.0955 19.0865 13.6398 19.0865 14.3112V43.4889C19.0953 44.1565 19.6368 44.6959 20.3069 44.7046H24.7165V48.449C24.7165 49.1203 25.2629 49.6647 25.9368 49.6647C26.6107 49.6647 27.1572 49.1203 27.1572 48.449V44.7371H31.5668C32.2369 44.7285 32.7784 44.189 32.7871 43.5214V14.3437C32.7958 14.0153 32.6711 13.6979 32.4412 13.4628C32.2113 13.2278 31.8958 13.0955 31.5668 13.0955ZM30.3464 42.2732H21.5273V15.5269H30.3464V42.2732Z" fill="#5FC6C1"/>
<path d="M13.3089 10.032H8.89986V1.53813C8.89986 0.86676 8.35342 0.322388 7.67951 0.322388C7.00505 0.322388 6.45916 0.86676 6.45916 1.53813V10.032H2.04957C1.37566 10.032 0.829224 10.5764 0.829224 11.2478V40.4255C0.83794 41.0936 1.37893 41.6325 2.04957 41.6412H6.4102V48.4493C6.4102 49.1207 6.95664 49.6651 7.63055 49.6651C8.30447 49.6651 8.85091 49.1207 8.85091 48.4493V41.6412H13.2605C13.9306 41.6325 14.4721 41.0936 14.4808 40.4255V11.2478C14.4814 10.5949 13.9637 10.0581 13.3089 10.032ZM12.0885 39.2097H3.26993V12.4635H12.0891L12.0885 39.2097Z" fill="#5FC6C1"/>
</svg>
