<svg width="68" height="36" viewBox="0 0 68 36" fill="none" xmlns="http://www.w3.org/2000/svg">
<path d="M65.6829 3.25617L57.3269 11.5812C56.4136 11.0056 55.3364 10.6681 54.1783 10.6681C52.5355 10.6681 51.0476 11.3405 49.9745 12.421L43.2698 8.26737C43.4799 7.66353 43.5996 7.01835 43.5996 6.34485C43.5996 3.09591 40.9464 0.451904 37.6848 0.451904C34.4233 0.451904 31.77 3.09537 31.77 6.34485C31.77 8.28036 32.7159 9.99512 34.1659 11.0698L28.5347 23.8096C28.1697 23.739 27.7931 23.6992 27.4076 23.6992C26.103 23.6992 24.8998 24.1278 23.9202 24.8431L17.5731 19.3446C18.0216 18.5147 18.2769 17.5666 18.2769 16.5598C18.2769 13.3109 15.6236 10.6669 12.3621 10.6669C9.10051 10.6669 6.44724 13.3104 6.44724 16.5598C6.44724 17.7136 6.78704 18.7868 7.36371 19.6968L0.534487 26.5008C0.023986 27.0094 0.023986 27.8345 0.534487 28.3432C0.789731 28.5975 1.12481 28.7252 1.45885 28.7252C1.7934 28.7252 2.12796 28.5975 2.3832 28.3432L9.21243 21.5392C10.1258 22.1148 11.2039 22.4528 12.3621 22.4528C13.6678 22.4528 14.8726 22.0237 15.8521 21.3063L22.1976 26.8043C21.748 27.6347 21.4922 28.5844 21.4922 29.5917C21.4922 32.8407 24.1455 35.4847 27.407 35.4847C30.6686 35.4847 33.3218 32.8412 33.3218 29.5917C33.3218 27.6557 32.3754 25.9398 30.9243 24.8651L36.5555 12.1263C36.9216 12.1969 37.2987 12.2367 37.6847 12.2367C39.3291 12.2367 40.8176 11.5633 41.8916 10.4807L48.5947 14.6333C48.3841 15.2376 48.2633 15.8844 48.2633 16.5594C48.2633 19.8084 50.9166 22.4524 54.1781 22.4524C57.4391 22.4524 60.093 19.8089 60.093 16.5594C60.093 15.4056 59.7532 14.3313 59.176 13.4214L67.5319 5.09636C68.0424 4.58775 68.0424 3.7631 67.5319 3.25395C67.0214 2.74744 66.1944 2.74757 65.6829 3.25617ZM12.3632 19.8492C10.5434 19.8492 9.06331 18.3746 9.06331 16.562C9.06331 14.7495 10.5434 13.2749 12.3632 13.2749C14.1824 13.2749 15.6625 14.7495 15.6625 16.562C15.6625 18.3746 14.1824 19.8492 12.3632 19.8492ZM27.4084 32.8815C25.5891 32.8815 24.109 31.4069 24.109 29.5944C24.109 27.7818 25.5891 26.3073 27.4084 26.3073C29.2276 26.3073 30.7077 27.7818 30.7077 29.5944C30.7077 31.4069 29.2276 32.8815 27.4084 32.8815ZM37.686 9.63363C35.8662 9.63363 34.3862 8.15905 34.3862 6.34651C34.3862 4.53396 35.8662 3.05939 37.686 3.05939C39.5053 3.05939 40.9853 4.53396 40.9853 6.34651C40.9853 8.15905 39.5053 9.63363 37.686 9.63363ZM54.1793 19.8493C52.36 19.8493 50.8799 18.3747 50.8799 16.5622C50.8799 14.7496 52.36 13.2751 54.1793 13.2751C55.0879 13.2751 55.9125 13.6434 56.5096 14.2373C56.5101 14.2379 56.5106 14.2384 56.5117 14.2384C57.1089 14.8333 57.4786 15.6554 57.4786 16.5606C57.4791 18.3748 55.9991 19.8493 54.1793 19.8493Z" fill="#5FC6C1"/>
</svg>
