<svg width="24" height="24" viewBox="0 0 24 24" fill="none" xmlns="http://www.w3.org/2000/svg">
<g clip-path="url(#clip0_4725_402)">
<path d="M16.5 0H7.5C3.3585 0 0 3.3585 0 7.5V16.5C0 20.6415 3.3585 24 7.5 24H16.5C20.6415 24 24 20.6415 24 16.5V7.5C24 3.3585 20.6415 0 16.5 0ZM21.75 16.5C21.75 19.395 19.395 21.75 16.5 21.75H7.5C4.605 21.75 2.25 19.395 2.25 16.5V7.5C2.25 4.605 4.605 2.25 7.5 2.25H16.5C19.395 2.25 21.75 4.605 21.75 7.5V16.5Z" fill="#269E96"/>
<path d="M11.9996 6.00024C8.68613 6.00024 5.99963 8.68674 5.99963 12.0002C5.99963 15.3137 8.68613 18.0002 11.9996 18.0002C15.3131 18.0002 17.9996 15.3137 17.9996 12.0002C17.9996 8.68674 15.3131 6.00024 11.9996 6.00024ZM11.9996 15.7502C9.93263 15.7502 8.24963 14.0672 8.24963 12.0002C8.24963 9.93174 9.93263 8.25024 11.9996 8.25024C14.0666 8.25024 15.7496 9.93174 15.7496 12.0002C15.7496 14.0672 14.0666 15.7502 11.9996 15.7502Z" fill="#269E96"/>
<path d="M18.6466 6.32542C19.0746 6.21673 19.3334 5.78169 19.2247 5.35373C19.1161 4.92577 18.681 4.66694 18.2531 4.77562C17.8251 4.88431 17.5663 5.31935 17.6749 5.74731C17.7836 6.17527 18.2187 6.4341 18.6466 6.32542Z" fill="#269E96"/>
</g>
<defs>
<clipPath id="clip0_4725_402">
<rect width="24" height="24" fill="white"/>
</clipPath>
</defs>
</svg>
