<svg width="24" height="24" viewBox="0 0 24 24" fill="none" xmlns="http://www.w3.org/2000/svg">
<path d="M7.81926 21.0107C16.3103 21.0107 20.9536 13.9762 20.9536 7.87637C20.9536 7.67658 20.9495 7.47761 20.9406 7.27975C21.8418 6.62808 22.6252 5.81488 23.2433 4.88926C22.4162 5.25706 21.5259 5.50432 20.5923 5.61619C21.5453 5.04447 22.2771 4.14046 22.6221 3.06279C21.7302 3.59158 20.7424 3.97575 19.6909 4.18325C18.8485 3.28598 17.6491 2.72485 16.3211 2.72485C13.772 2.72485 11.7046 4.79212 11.7046 7.34043C11.7046 7.70286 11.7452 8.05511 11.8243 8.39305C7.98768 8.2 4.58544 6.36321 2.30889 3.56998C1.91261 4.25205 1.68392 5.04461 1.68392 5.89029C1.68392 7.49165 2.49891 8.90574 3.73811 9.7327C2.98078 9.70944 2.2694 9.50153 1.64746 9.15548C1.64677 9.17488 1.64677 9.19373 1.64677 9.21437C1.64677 11.4501 3.23795 13.3167 5.35048 13.7397C4.96246 13.8452 4.5542 13.902 4.13316 13.902C3.83622 13.902 3.54672 13.8729 3.26547 13.8188C3.85314 15.653 5.55743 16.9877 7.57791 17.0251C5.99788 18.2635 4.00753 19.0011 1.84436 19.0011C1.47229 19.0011 1.1045 18.9798 0.743164 18.9372C2.78621 20.2467 5.2122 21.0109 7.8194 21.0109" fill="#269E96"/>
</svg>
