<svg width="16" height="16" viewBox="0 0 16 16" fill="none" xmlns="http://www.w3.org/2000/svg">
<g clip-path="url(#clip0_4715_1059)">
<path d="M15.7608 9.93474C14.6919 14.2227 10.3475 16.8294 6.06561 15.7604C1.77749 14.6916 -0.829136 10.3473 0.239801 6.06549C1.30868 1.77749 5.6468 -0.829136 9.93493 0.239801C14.2168 1.30243 16.8297 5.64668 15.7608 9.93474Z" fill="url(#paint0_linear_4715_1059)"/>
<path d="M11.809 7.00314C11.9653 5.94064 11.159 5.36564 10.0465 4.98439L10.409 3.54064L9.53401 3.32189L9.18401 4.72814C8.95276 4.67189 8.71526 4.61564 8.47776 4.56564L8.82776 3.15314L7.95276 2.93439L7.59651 4.37189C7.40276 4.32814 7.21526 4.28439 7.03401 4.24064V4.23439L5.82151 3.93439L5.59026 4.87189C5.59026 4.87189 6.24026 5.02189 6.22776 5.02814C6.58401 5.11564 6.64651 5.35314 6.63401 5.54064L6.22151 7.18439C6.24651 7.19064 6.27776 7.19689 6.31526 7.21564C6.28401 7.20939 6.25276 7.20314 6.22151 7.19064L5.64651 9.49064C5.60276 9.59689 5.49026 9.75939 5.24651 9.69689C5.25276 9.70939 4.60901 9.54064 4.60901 9.54064L4.17151 10.5469L5.31526 10.8344C5.52776 10.8906 5.73401 10.9406 5.94026 10.9969L5.57776 12.4531L6.45276 12.6719L6.81526 11.2281C7.05276 11.2906 7.29026 11.3531 7.51526 11.4094L7.15901 12.8469L8.03401 13.0656L8.39651 11.6094C9.89651 11.8906 11.0215 11.7781 11.4903 10.4219C11.8715 9.33439 11.4715 8.70314 10.684 8.29064C11.2653 8.15939 11.6965 7.77814 11.809 7.00314ZM9.80276 9.81564C9.53401 10.9031 7.69651 10.3156 7.10276 10.1656L7.58401 8.23439C8.17776 8.38439 10.0903 8.67814 9.80276 9.81564ZM10.0778 6.98439C9.82776 7.97814 8.30276 7.47189 7.80901 7.34689L8.24651 5.59689C8.74026 5.72189 10.334 5.95314 10.0778 6.98439Z" fill="#26233C"/>
</g>
<defs>
<linearGradient id="paint0_linear_4715_1059" x1="7.9958" y1="-0.00371793" x2="7.9958" y2="15.9985" gradientUnits="userSpaceOnUse">
<stop stop-color="#F9AA4B"/>
<stop offset="1" stop-color="#F7931A"/>
</linearGradient>
<clipPath id="clip0_4715_1059">
<rect width="16" height="16" fill="white"/>
</clipPath>
</defs>
</svg>
