<svg width="16" height="16" viewBox="0 0 16 16" fill="none" xmlns="http://www.w3.org/2000/svg">
<g clip-path="url(#clip0_4725_458)">
<path d="M6.4638 8.9079C6.5078 9.1679 6.5878 9.39991 6.7038 9.60391C6.8198 9.80791 6.9798 9.97191 7.1758 10.0959C7.3638 10.2119 7.59981 10.2759 7.89181 10.2799C8.08381 10.2759 8.2598 10.2439 8.4118 10.1759C8.5758 10.1039 8.71181 10.0079 8.82781 9.88791C8.94381 9.76791 9.0318 9.62391 9.0958 9.46391C9.1598 9.30391 9.19581 9.13191 9.20381 8.9519H10.6358C10.6238 9.32791 10.5478 9.67191 10.4158 9.98391C10.2838 10.2959 10.0918 10.5639 9.85181 10.7919C9.61181 11.0199 9.3238 11.1919 8.9878 11.3159C8.6518 11.4399 8.27981 11.5039 7.87181 11.5039C7.35181 11.5039 6.8998 11.4159 6.5158 11.2359C6.1318 11.0559 5.8118 10.8119 5.5558 10.4999C5.2998 10.1879 5.1078 9.82791 4.9838 9.4159C4.8598 9.0039 4.7998 8.5679 4.7998 8.1079V7.8879C4.7998 7.4239 4.8638 6.9879 4.9878 6.5759C5.1118 6.1639 5.3038 5.8039 5.5598 5.4959C5.8158 5.1879 6.1358 4.9439 6.5238 4.7639C6.9118 4.5839 7.3638 4.4959 7.8838 4.4959C8.2598 4.4959 8.6118 4.5559 8.9398 4.6799C9.2678 4.8039 9.5558 4.9719 9.8038 5.1879C10.0518 5.4039 10.2518 5.6519 10.3958 5.9399C10.5398 6.2279 10.6238 6.5319 10.6358 6.8599H9.20381C9.19581 6.6919 9.1558 6.5399 9.0838 6.3959C9.0118 6.2519 8.9158 6.1319 8.7958 6.0319C8.6758 5.9319 8.53581 5.8519 8.37581 5.7959C8.22381 5.7439 8.06381 5.7159 7.89181 5.7159C7.60381 5.7239 7.3678 5.7839 7.1758 5.9039C6.9758 6.0319 6.8158 6.1959 6.6998 6.3999C6.5838 6.6039 6.5038 6.8359 6.4598 7.0999C6.4158 7.3639 6.3998 7.6199 6.3998 7.8879V8.1079C6.3998 8.3799 6.4198 8.6479 6.4638 8.9079Z" fill="#D1D1D1"/>
<path d="M8 16C3.58 16 0 12.42 0 8C0 3.58 3.58 0 8 0C12.42 0 16 3.58 16 8C16 12.42 12.42 16 8 16ZM8 1.6C4.472 1.6 1.6 4.472 1.6 8C1.6 11.528 4.472 14.4 8 14.4C11.528 14.4 14.4 11.528 14.4 8C14.4 4.472 11.528 1.6 8 1.6Z" fill="#D1D1D1"/>
</g>
<defs>
<clipPath id="clip0_4725_458">
<rect width="16" height="16" fill="white" transform="matrix(1 0 0 -1 0 16)"/>
</clipPath>
</defs>
</svg>
